<mxfile host="app.diagrams.net" agent="Mozilla/5.0 (Windows NT 10.0; Win64; x64) AppleWebKit/537.36 (KHTML, like Gecko) Chrome/141.0.0.0 Safari/537.36" version="28.2.5">
  <diagram name="หน้า-1" id="i2fjWvyLXHuesnibQ-b7">
    <mxGraphModel grid="1" page="1" gridSize="10" guides="1" tooltips="1" connect="1" arrows="1" fold="1" pageScale="1" pageWidth="827" pageHeight="1169" math="0" shadow="0">
      <root>
        <mxCell id="0" />
        <mxCell id="1" parent="0" />
        <mxCell id="jzw8i93kaIl81uesuI7i-1" value="Start" style="ellipse;whiteSpace=wrap;html=1;" vertex="1" parent="1">
          <mxGeometry x="340" y="50" width="120" height="40" as="geometry" />
        </mxCell>
        <mxCell id="jzw8i93kaIl81uesuI7i-2" value="กำหนดตัวแปร n และ Array ones[] กับ tens[]" style="shape=process;whiteSpace=wrap;html=1;" vertex="1" parent="1">
          <mxGeometry x="295" y="120" width="210" height="60" as="geometry" />
        </mxCell>
        <mxCell id="jzw8i93kaIl81uesuI7i-3" value="" style="endArrow=classic;html=1;entryDx=0;entryDy=0;" edge="1" parent="1" source="jzw8i93kaIl81uesuI7i-1" target="jzw8i93kaIl81uesuI7i-2">
          <mxGeometry width="50" height="50" relative="1" as="geometry">
            <mxPoint x="400" y="90" as="sourcePoint" />
            <mxPoint x="400" y="120" as="targetPoint" />
          </mxGeometry>
        </mxCell>
        <mxCell id="jzw8i93kaIl81uesuI7i-4" value="แสดงผล: &quot;User Input :&quot;" style="shape=parallelogram;perimeter=parallelogramPerimeter;whiteSpace=wrap;html=1;" vertex="1" parent="1">
          <mxGeometry x="320" y="210" width="160" height="40" as="geometry" />
        </mxCell>
        <mxCell id="jzw8i93kaIl81uesuI7i-5" value="" style="endArrow=classic;html=1;entryDx=0;entryDy=0;" edge="1" parent="1" source="jzw8i93kaIl81uesuI7i-2" target="jzw8i93kaIl81uesuI7i-4">
          <mxGeometry width="50" height="50" relative="1" as="geometry">
            <mxPoint x="400" y="180" as="sourcePoint" />
            <mxPoint x="400" y="210" as="targetPoint" />
          </mxGeometry>
        </mxCell>
        <mxCell id="jzw8i93kaIl81uesuI7i-6" value="รับค่า n (scanf)" style="shape=parallelogram;perimeter=parallelogramPerimeter;whiteSpace=wrap;html=1;" vertex="1" parent="1">
          <mxGeometry x="320" y="280" width="160" height="40" as="geometry" />
        </mxCell>
        <mxCell id="jzw8i93kaIl81uesuI7i-7" value="" style="endArrow=classic;html=1;entryDx=0;entryDy=0;" edge="1" parent="1" source="jzw8i93kaIl81uesuI7i-4" target="jzw8i93kaIl81uesuI7i-6">
          <mxGeometry width="50" height="50" relative="1" as="geometry">
            <mxPoint x="400" y="250" as="sourcePoint" />
            <mxPoint x="400" y="280" as="targetPoint" />
          </mxGeometry>
        </mxCell>
        <mxCell id="jzw8i93kaIl81uesuI7i-8" value="ค่าที่รับไม่ใช่จำนวนเต็ม&lt;br&gt;หรือ&lt;br&gt;1 &gt; n &gt; 99" style="rhombus;whiteSpace=wrap;html=1;align=center;" vertex="1" parent="1">
          <mxGeometry x="290" y="350" width="230" height="70" as="geometry" />
        </mxCell>
        <mxCell id="jzw8i93kaIl81uesuI7i-9" value="" style="endArrow=classic;html=1;entryDx=0;entryDy=0;" edge="1" parent="1" source="jzw8i93kaIl81uesuI7i-6" target="jzw8i93kaIl81uesuI7i-8">
          <mxGeometry width="50" height="50" relative="1" as="geometry">
            <mxPoint x="400" y="320" as="sourcePoint" />
            <mxPoint x="400" y="350" as="targetPoint" />
          </mxGeometry>
        </mxCell>
        <mxCell id="jzw8i93kaIl81uesuI7i-10" value="แสดงผล: &quot;Result : Invalid...&quot;" style="shape=parallelogram;perimeter=parallelogramPerimeter;whiteSpace=wrap;html=1;" vertex="1" parent="1">
          <mxGeometry x="295" y="450" width="210" height="40" as="geometry" />
        </mxCell>
        <mxCell id="jzw8i93kaIl81uesuI7i-11" value="จริง" style="endArrow=classic;html=1;entryDx=0;entryDy=0;" edge="1" parent="1" source="jzw8i93kaIl81uesuI7i-8" target="jzw8i93kaIl81uesuI7i-10">
          <mxGeometry width="50" height="50" relative="1" as="geometry">
            <mxPoint x="400" y="420" as="sourcePoint" />
            <mxPoint x="400" y="450" as="targetPoint" />
          </mxGeometry>
        </mxCell>
        <mxCell id="jzw8i93kaIl81uesuI7i-12" value="Stop" style="ellipse;whiteSpace=wrap;html=1;" vertex="1" parent="1">
          <mxGeometry x="340" y="570" width="120" height="40" as="geometry" />
        </mxCell>
        <mxCell id="jzw8i93kaIl81uesuI7i-13" value="return 1" style="endArrow=classic;html=1;entryDx=0;entryDy=0;" edge="1" parent="1" source="jzw8i93kaIl81uesuI7i-10" target="jzw8i93kaIl81uesuI7i-12">
          <mxGeometry width="50" height="50" relative="1" as="geometry">
            <mxPoint x="400" y="490" as="sourcePoint" />
            <mxPoint x="400" y="570" as="targetPoint" />
            <Array as="points">
              <mxPoint x="400" y="530" />
            </Array>
          </mxGeometry>
        </mxCell>
        <mxCell id="jzw8i93kaIl81uesuI7i-14" value="แสดงผล: &quot;Result : &quot;" style="shape=parallelogram;perimeter=parallelogramPerimeter;whiteSpace=wrap;html=1;" vertex="1" parent="1">
          <mxGeometry x="565" y="365" width="140" height="40" as="geometry" />
        </mxCell>
        <mxCell id="jzw8i93kaIl81uesuI7i-15" value="เท็จ" style="endArrow=classic;html=1;entryDx=0;entryDy=0;" edge="1" parent="1" source="jzw8i93kaIl81uesuI7i-8" target="jzw8i93kaIl81uesuI7i-14">
          <mxGeometry width="50" height="50" relative="1" as="geometry">
            <mxPoint x="520" y="385" as="sourcePoint" />
            <mxPoint x="565" y="385" as="targetPoint" />
          </mxGeometry>
        </mxCell>
        <mxCell id="jzw8i93kaIl81uesuI7i-16" value="n &lt;= 19" style="rhombus;whiteSpace=wrap;html=1;" vertex="1" parent="1">
          <mxGeometry x="585" y="450" width="100" height="60" as="geometry" />
        </mxCell>
        <mxCell id="jzw8i93kaIl81uesuI7i-17" value="" style="endArrow=classic;html=1;entryDx=0;entryDy=0;" edge="1" parent="1" source="jzw8i93kaIl81uesuI7i-14" target="jzw8i93kaIl81uesuI7i-16">
          <mxGeometry width="50" height="50" relative="1" as="geometry">
            <mxPoint x="635" y="405" as="sourcePoint" />
            <mxPoint x="635" y="450" as="targetPoint" />
          </mxGeometry>
        </mxCell>
        <mxCell id="jzw8i93kaIl81uesuI7i-18" value="แสดงผล: ones[n] &amp; ขึ้นบรรทัดใหม่" style="shape=parallelogram;perimeter=parallelogramPerimeter;whiteSpace=wrap;html=1;" vertex="1" parent="1">
          <mxGeometry x="735" y="460" width="200" height="40" as="geometry" />
        </mxCell>
        <mxCell id="jzw8i93kaIl81uesuI7i-19" value="จริง" style="endArrow=classic;html=1;entryDx=0;entryDy=0;exitDx=0;exitDy=0;" edge="1" parent="1" source="jzw8i93kaIl81uesuI7i-16">
          <mxGeometry width="50" height="50" relative="1" as="geometry">
            <mxPoint x="685" y="480" as="sourcePoint" />
            <mxPoint x="735" y="480" as="targetPoint" />
          </mxGeometry>
        </mxCell>
        <mxCell id="jzw8i93kaIl81uesuI7i-20" value="แสดงผล: tens[n / 10]" style="shape=parallelogram;perimeter=parallelogramPerimeter;whiteSpace=wrap;html=1;" vertex="1" parent="1">
          <mxGeometry x="565" y="550" width="140" height="40" as="geometry" />
        </mxCell>
        <mxCell id="jzw8i93kaIl81uesuI7i-21" value="เท็จ" style="endArrow=classic;html=1;entryDx=0;entryDy=0;" edge="1" parent="1" source="jzw8i93kaIl81uesuI7i-16" target="jzw8i93kaIl81uesuI7i-20">
          <mxGeometry width="50" height="50" relative="1" as="geometry">
            <mxPoint x="635" y="510" as="sourcePoint" />
            <mxPoint x="635" y="550" as="targetPoint" />
          </mxGeometry>
        </mxCell>
        <mxCell id="jzw8i93kaIl81uesuI7i-22" value="n % 10 != 0" style="rhombus;whiteSpace=wrap;html=1;" vertex="1" parent="1">
          <mxGeometry x="575" y="630" width="120" height="60" as="geometry" />
        </mxCell>
        <mxCell id="jzw8i93kaIl81uesuI7i-23" value="" style="endArrow=classic;html=1;entryDx=0;entryDy=0;" edge="1" parent="1" source="jzw8i93kaIl81uesuI7i-20" target="jzw8i93kaIl81uesuI7i-22">
          <mxGeometry width="50" height="50" relative="1" as="geometry">
            <mxPoint x="635" y="590" as="sourcePoint" />
            <mxPoint x="635" y="630" as="targetPoint" />
          </mxGeometry>
        </mxCell>
        <mxCell id="jzw8i93kaIl81uesuI7i-24" value="แสดงผล: &quot; &quot; + ones[n % 10]" style="shape=parallelogram;perimeter=parallelogramPerimeter;whiteSpace=wrap;html=1;" vertex="1" parent="1">
          <mxGeometry x="735" y="640" width="200" height="40" as="geometry" />
        </mxCell>
        <mxCell id="jzw8i93kaIl81uesuI7i-25" value="จริง" style="endArrow=classic;html=1;entryDx=0;entryDy=0;exitDx=0;exitDy=0;" edge="1" parent="1" source="jzw8i93kaIl81uesuI7i-22">
          <mxGeometry width="50" height="50" relative="1" as="geometry">
            <mxPoint x="695" y="660" as="sourcePoint" />
            <mxPoint x="735" y="660" as="targetPoint" />
          </mxGeometry>
        </mxCell>
        <mxCell id="jzw8i93kaIl81uesuI7i-26" value="แสดงผล: ขึ้นบรรทัดใหม่" style="shape=parallelogram;perimeter=parallelogramPerimeter;whiteSpace=wrap;html=1;" vertex="1" parent="1">
          <mxGeometry x="585" y="740" width="100" height="40" as="geometry" />
        </mxCell>
        <mxCell id="jzw8i93kaIl81uesuI7i-27" value="เท็จ" style="endArrow=classic;html=1;entryDx=0;entryDy=0;" edge="1" parent="1" source="jzw8i93kaIl81uesuI7i-22" target="jzw8i93kaIl81uesuI7i-26">
          <mxGeometry width="50" height="50" relative="1" as="geometry">
            <mxPoint x="635" y="690" as="sourcePoint" />
            <mxPoint x="635" y="740" as="targetPoint" />
          </mxGeometry>
        </mxCell>
        <mxCell id="jzw8i93kaIl81uesuI7i-28" value="" style="endArrow=classic;html=1;entryDx=0;entryDy=0;" edge="1" parent="1" source="jzw8i93kaIl81uesuI7i-24" target="jzw8i93kaIl81uesuI7i-26">
          <mxGeometry width="50" height="50" relative="1" as="geometry">
            <mxPoint x="835" y="680" as="sourcePoint" />
            <mxPoint x="685" y="760" as="targetPoint" />
            <Array as="points">
              <mxPoint x="835" y="760" />
            </Array>
          </mxGeometry>
        </mxCell>
        <mxCell id="jzw8i93kaIl81uesuI7i-29" value="" style="rhombus;whiteSpace=wrap;html=1;" vertex="1" parent="1">
          <mxGeometry x="630" y="830" width="10" height="10" as="geometry" />
        </mxCell>
        <mxCell id="jzw8i93kaIl81uesuI7i-30" value="" style="endArrow=classic;html=1;entryDx=0;entryDy=0;" edge="1" parent="1" source="jzw8i93kaIl81uesuI7i-18" target="jzw8i93kaIl81uesuI7i-29">
          <mxGeometry width="50" height="50" relative="1" as="geometry">
            <mxPoint x="835" y="500" as="sourcePoint" />
            <mxPoint x="635" y="835" as="targetPoint" />
            <Array as="points">
              <mxPoint x="835" y="835" />
            </Array>
          </mxGeometry>
        </mxCell>
        <mxCell id="jzw8i93kaIl81uesuI7i-31" value="" style="endArrow=classic;html=1;entryDx=0;entryDy=0;" edge="1" parent="1" source="jzw8i93kaIl81uesuI7i-26" target="jzw8i93kaIl81uesuI7i-29">
          <mxGeometry width="50" height="50" relative="1" as="geometry">
            <mxPoint x="635" y="780" as="sourcePoint" />
            <mxPoint x="635" y="830" as="targetPoint" />
          </mxGeometry>
        </mxCell>
        <mxCell id="jzw8i93kaIl81uesuI7i-32" value="Stop" style="ellipse;whiteSpace=wrap;html=1;" vertex="1" parent="1">
          <mxGeometry x="565" y="890" width="140" height="40" as="geometry" />
        </mxCell>
        <mxCell id="jzw8i93kaIl81uesuI7i-33" value="return 0" style="endArrow=classic;html=1;entryDx=0;entryDy=0;" edge="1" parent="1" source="jzw8i93kaIl81uesuI7i-29" target="jzw8i93kaIl81uesuI7i-32">
          <mxGeometry width="50" height="50" relative="1" as="geometry">
            <mxPoint x="635" y="840" as="sourcePoint" />
            <mxPoint x="635" y="890" as="targetPoint" />
          </mxGeometry>
        </mxCell>
      </root>
    </mxGraphModel>
  </diagram>
</mxfile>
